<svg width="33" height="33" viewBox="0 0 33 33" fill="none" xmlns="http://www.w3.org/2000/svg">
<rect width="32.1428" height="32.1428" rx="8" fill="white"/>
<path d="M15.9992 16.0879C18.0952 16.0879 19.7992 14.3839 19.7992 12.2879C19.7992 10.1919 18.0952 8.48788 15.9992 8.48788C13.9032 8.48788 12.1992 10.1919 12.1992 12.2879C12.1992 14.3839 13.9032 16.0879 15.9992 16.0879ZM15.9992 9.68788C17.4312 9.68788 18.5992 10.8559 18.5992 12.2879C18.5992 13.7199 17.4312 14.8879 15.9992 14.8879C14.5672 14.8879 13.3992 13.7199 13.3992 12.2879C13.3992 10.8559 14.5672 9.68788 15.9992 9.68788Z" fill="black"/>
<path d="M18.4 17.2878H13.6C11.064 17.2878 9 19.3518 9 21.8878C9 23.1038 9.984 24.0878 11.2 24.0878H20.8C22.016 24.0878 23 23.1038 23 21.8878C23 19.3518 20.936 17.2878 18.4 17.2878ZM20.8 22.8878H11.2C10.648 22.8878 10.2 22.4398 10.2 21.8878C10.2 20.0158 11.728 18.4878 13.6 18.4878H18.4C20.272 18.4878 21.8 20.0158 21.8 21.8878C21.8 22.4398 21.352 22.8878 20.8 22.8878Z" fill="black"/>
</svg>
