<svg width="77" height="40" viewBox="0 0 77 40" fill="none" xmlns="http://www.w3.org/2000/svg">
<rect width="77" height="40" rx="20" transform="matrix(-1 0 0 1 77 0)" fill="white"/>
<path d="M26 20.6C25.6686 20.6 25.4 20.3314 25.4 20C25.4 19.6686 25.6686 19.4 26 19.4V20V20.6ZM51.4243 19.5757C51.6586 19.8101 51.6586 20.1899 51.4243 20.4243L47.6059 24.2426C47.3716 24.477 46.9917 24.477 46.7574 24.2426C46.523 24.0083 46.523 23.6284 46.7574 23.3941L50.1515 20L46.7574 16.6059C46.523 16.3716 46.523 15.9917 46.7574 15.7574C46.9917 15.523 47.3716 15.523 47.6059 15.7574L51.4243 19.5757ZM26 20V19.4L51 19.4V20V20.6L26 20.6V20Z" fill="#26323A"/>
</svg>
