<svg width="40" height="40" viewBox="0 0 40 40" fill="none" xmlns="http://www.w3.org/2000/svg">
<circle cx="20" cy="20" r="20" fill="#C8BAAD"/>
<path d="M16 19.5C15.7239 19.5 15.5 19.7239 15.5 20C15.5 20.2761 15.7239 20.5 16 20.5L16 20L16 19.5ZM24.3536 20.3536C24.5488 20.1583 24.5488 19.8417 24.3536 19.6464L21.1716 16.4645C20.9763 16.2692 20.6597 16.2692 20.4645 16.4645C20.2692 16.6597 20.2692 16.9763 20.4645 17.1716L23.2929 20L20.4645 22.8284C20.2692 23.0237 20.2692 23.3403 20.4645 23.5355C20.6597 23.7308 20.9763 23.7308 21.1716 23.5355L24.3536 20.3536ZM16 20L16 20.5L24 20.5L24 20L24 19.5L16 19.5L16 20Z" fill="white"/>
</svg>
