<svg width="51" height="51" viewBox="0 0 51 51" fill="none" xmlns="http://www.w3.org/2000/svg">
<rect width="51" height="51" rx="8" fill="#E6E0D9"/>
<path d="M36.7582 17.2412C16.8373 17.2886 17.8866 17.1316 17.2764 17.3614C16.2448 17.3677 15.6166 18.4928 15.4092 19.0635C15.0732 19.9883 15.1322 21.0025 15.1759 21.9855C15.3035 24.8614 15.2618 27.7448 15.0508 30.6158C14.9804 31.5743 15.1338 32.6223 15.7899 33.3246C16.4409 34.0213 17.3146 34.0881 18.268 34.0705C20.5421 34.0286 22.8162 33.9866 25.0903 33.9446C25.3717 34.1868 25.8103 34.6587 25.8982 34.7386C27.6321 36.3134 28.6892 37.5231 30.054 37.3109C30.4943 37.3414 30.8369 37.0441 30.9152 36.6594C31.1456 35.5168 31.3782 34.3149 31.608 33.1118H36.7582C37.7526 33.1118 38.5617 32.3027 38.5617 31.3082V19.0448C38.5617 18.0503 37.7526 17.2412 36.7582 17.2412ZM37.9864 31.3082C37.9864 31.9855 37.4354 32.5365 36.7582 32.5365C31.0872 32.5415 31.2797 32.4889 31.1518 32.6431C31.0505 32.7657 31.1284 32.699 30.3511 36.5451C30.3117 36.7402 30.0667 36.8116 29.9301 36.6605C29.5771 36.27 29.1352 35.7757 28.9907 35.6428L28.9963 35.6375C25.9599 32.3583 26.4295 32.7312 26.1203 32.6215H17.9078C17.2306 32.6215 16.6796 32.0705 16.6796 31.3929V19.0448C16.6796 18.3675 17.2306 17.8165 17.9078 17.8165H36.7582C37.4354 17.8165 37.9864 18.3675 37.9864 19.0448V31.3082Z" fill="black"/>
<path d="M37.9864 31.3082C37.9864 31.9855 37.4354 32.5365 36.7582 32.5365C31.0872 32.5415 31.2797 32.4889 31.1518 32.6431C31.0505 32.7657 31.1284 32.699 30.3511 36.5451C30.3117 36.7402 30.0667 36.8116 29.9301 36.6605C29.5771 36.27 29.1352 35.7757 28.9907 35.6428L28.9963 35.6375C25.9599 32.3583 26.4295 32.7312 26.1203 32.6215H17.9078C17.2306 32.6215 16.6796 32.0705 16.6796 31.3929V19.0448C16.6796 18.3675 17.2306 17.8165 17.9078 17.8165H36.7582C37.4354 17.8165 37.9864 18.3675 37.9864 19.0448V31.3082Z" fill="white"/>
<path d="M36.5715 21.8289H19.4244C19.2656 21.8289 19.1367 21.9577 19.1367 22.1166C19.1367 22.2754 19.2656 22.4042 19.4244 22.4042H36.5715C36.7304 22.4042 36.8592 22.2754 36.8592 22.1166C36.8592 21.9577 36.7304 21.8289 36.5715 21.8289Z" fill="black"/>
<path d="M30.9956 26.0211H21.3365C21.1777 26.0211 21.0488 26.1499 21.0488 26.3088C21.0488 26.4676 21.1777 26.5964 21.3365 26.5964H30.9956C31.1544 26.5964 31.2833 26.4676 31.2833 26.3088C31.2833 26.1499 31.1544 26.0211 30.9956 26.0211Z" fill="black"/>
<path d="M27.6857 28.927H25.2779C25.1191 28.927 24.9902 29.0559 24.9902 29.2147C24.9902 29.3735 25.1191 29.5024 25.2779 29.5024H27.6857C27.8445 29.5024 27.9733 29.3735 27.9733 29.2147C27.9733 29.0559 27.8445 28.927 27.6857 28.927Z" fill="black"/>
</svg>
