<svg width="37" height="37" viewBox="0 0 37 37" fill="none" xmlns="http://www.w3.org/2000/svg">
<rect width="36.875" height="36.875" rx="5.53125" fill="#E6E0D9"/>
<rect x="9.21875" y="13" width="18" height="11" fill="white"/>
<path d="M25.817 12H10.6205C9.72515 12 9 12.7296 9 13.6205V23.3434C9 24.2395 9.73048 24.9639 10.6205 24.9639H25.817C26.7049 24.9639 27.4375 24.2426 27.4375 23.3434V13.6205C27.4375 12.7312 26.7152 12 25.817 12ZM25.5901 13.0803C25.259 13.4096 19.5613 19.0773 19.3646 19.273C19.0585 19.5791 18.6516 19.7476 18.2188 19.7476C17.7859 19.7476 17.379 19.579 17.0719 19.272C16.9396 19.1404 11.3048 13.5353 10.8474 13.0803H25.5901ZM10.0803 23.1235V13.841L14.7487 18.4848L10.0803 23.1235ZM10.8481 23.8835L15.5146 19.2467L16.309 20.0369C16.8191 20.547 17.4973 20.8279 18.2188 20.8279C18.9402 20.8279 19.6184 20.547 20.1275 20.0379L20.9229 19.2467L25.5894 23.8835H10.8481ZM26.3572 23.1235L21.6888 18.4848L26.3572 13.841V23.1235Z" fill="#26333A"/>
</svg>
