<svg width="37" height="37" viewBox="0 0 37 37" fill="none" xmlns="http://www.w3.org/2000/svg">
<rect width="36.875" height="36.875" rx="5.53125" fill="#E6E0D9"/>
<path d="M19.8203 23.5078L21.6641 22.125L23.0469 21.6641L25.3516 23.9688L26.2734 25.3516L23.5078 28.1172L20.7422 27.6562L17.0547 25.8125L11.9844 21.2031L9.67969 16.1328L10.6016 13.3672L12.9062 11.9844L16.1328 14.2891V15.6719L14.75 17.5156L15.6719 19.8203L19.8203 23.5078Z" fill="white"/>
<path d="M23.8347 21.6439C23.4603 21.2541 23.0088 21.0457 22.5302 21.0457C22.0555 21.0457 21.6001 21.2503 21.2103 21.6401L19.9908 22.8558C19.8904 22.8017 19.7901 22.7516 19.6936 22.7014C19.5547 22.6319 19.4235 22.5663 19.3115 22.4968C18.1692 21.7713 17.131 20.8258 16.1353 19.6023C15.6529 18.9926 15.3287 18.4793 15.0933 17.9583C15.4098 17.6688 15.7031 17.3678 15.9887 17.0783C16.0967 16.9703 16.2048 16.8584 16.3128 16.7503C17.1233 15.9398 17.1233 14.8901 16.3128 14.0797L15.2592 13.0261C15.1396 12.9064 15.0161 12.7829 14.9003 12.6594C14.6688 12.4201 14.4256 12.1731 14.1748 11.9416C13.8004 11.5711 13.3527 11.3743 12.8819 11.3743C12.4111 11.3743 11.9557 11.5711 11.5697 11.9416C11.5659 11.9454 11.5659 11.9454 11.562 11.9493L10.2498 13.2731C9.75584 13.767 9.47411 14.3691 9.41236 15.0676C9.31974 16.1946 9.65164 17.2443 9.90636 17.9313C10.5316 19.6178 11.4655 21.1808 12.8587 22.8558C14.5491 24.8742 16.583 26.4681 18.9063 27.5911C19.7939 28.0118 20.9788 28.5097 22.3025 28.5946C22.3836 28.5984 22.4685 28.6023 22.5456 28.6023C23.4372 28.6023 24.1859 28.282 24.7725 27.6452C24.7763 27.6375 24.7841 27.6336 24.7879 27.6259C24.9886 27.3827 25.2202 27.1628 25.4633 26.9273C25.6292 26.7691 25.7991 26.6032 25.965 26.4295C26.3471 26.032 26.5478 25.5689 26.5478 25.0942C26.5478 24.6156 26.3432 24.1564 25.9534 23.7704L23.8347 21.6439ZM25.2163 25.7078C25.2124 25.7117 25.2124 25.7078 25.2163 25.7078C25.0658 25.8699 24.9114 26.0165 24.7455 26.1786C24.4946 26.4179 24.2399 26.6688 24.0006 26.9505C23.6108 27.3673 23.1516 27.5641 22.5495 27.5641C22.4916 27.5641 22.4299 27.5641 22.372 27.5603C21.2258 27.4869 20.1606 27.0393 19.3617 26.6572C17.1773 25.5997 15.2592 24.0985 13.6653 22.1958C12.3493 20.6096 11.4694 19.1431 10.8866 17.5685C10.5277 16.6075 10.3965 15.8588 10.4544 15.1525C10.493 14.701 10.6666 14.3267 10.987 14.0063L12.303 12.6903C12.4921 12.5128 12.6928 12.4163 12.8896 12.4163C13.1328 12.4163 13.3296 12.5629 13.4531 12.6864C13.4569 12.6903 13.4608 12.6942 13.4647 12.698C13.7001 12.918 13.9239 13.1457 14.1593 13.3888C14.279 13.5123 14.4025 13.6358 14.526 13.7632L15.5796 14.8168C15.9887 15.2259 15.9887 15.6041 15.5796 16.0132C15.4676 16.1251 15.3596 16.237 15.2477 16.3451C14.9235 16.677 14.6147 16.9857 14.279 17.2868C14.2713 17.2945 14.2635 17.2983 14.2597 17.306C13.9278 17.638 13.9895 17.9621 14.059 18.1821C14.0629 18.1937 14.0667 18.2053 14.0706 18.2168C14.3446 18.8807 14.7305 19.5059 15.3171 20.2507L15.321 20.2546C16.3862 21.5667 17.5092 22.5895 18.7481 23.3729C18.9063 23.4733 19.0684 23.5543 19.2228 23.6315C19.3617 23.701 19.4929 23.7666 19.6048 23.836C19.6203 23.8437 19.6357 23.8553 19.6512 23.863C19.7824 23.9287 19.9059 23.9595 20.0332 23.9595C20.3536 23.9595 20.5542 23.7588 20.6198 23.6932L21.9397 22.3733C22.0709 22.2421 22.2794 22.0839 22.5225 22.0839C22.7618 22.0839 22.9586 22.2344 23.0782 22.3656C23.0821 22.3695 23.0821 22.3695 23.086 22.3733L25.2124 24.4998C25.61 24.8935 25.61 25.2987 25.2163 25.7078Z" fill="#26323A"/>
<path d="M19.2667 14.6665C20.2779 14.8363 21.1964 15.3149 21.9297 16.0482C22.663 16.7814 23.1376 17.6999 23.3113 18.7111C23.3538 18.9658 23.5738 19.1433 23.8246 19.1433C23.8555 19.1433 23.8825 19.1395 23.9134 19.1356C24.199 19.0893 24.3881 18.8192 24.3418 18.5336C24.1334 17.3102 23.5545 16.1948 22.6707 15.311C21.7869 14.4272 20.6715 13.8483 19.4481 13.6399C19.1625 13.5936 18.8963 13.7827 18.8461 14.0645C18.7959 14.3462 18.9812 14.6202 19.2667 14.6665Z" fill="#26323A"/>
<path d="M27.6478 18.3828C27.3043 16.3682 26.3549 14.535 24.8961 13.0762C23.4373 11.6174 21.6041 10.668 19.5895 10.3245C19.3078 10.2743 19.0415 10.4673 18.9913 10.749C18.945 11.0346 19.1341 11.3009 19.4197 11.3511C21.2182 11.656 22.8584 12.5089 24.1628 13.8095C25.4673 15.1139 26.3163 16.7541 26.6212 18.5526C26.6637 18.8073 26.8837 18.9848 27.1345 18.9848C27.1654 18.9848 27.1924 18.981 27.2233 18.9771C27.505 18.9347 27.698 18.6645 27.6478 18.3828Z" fill="#26323A"/>
</svg>
