<svg width="20" height="20" viewBox="0 0 20 20" fill="none" xmlns="http://www.w3.org/2000/svg">
<path d="M18.6162 7.62658C18.3595 7.45422 18.1276 7.24747 17.9271 7.01206C17.942 6.6843 18.0079 6.36087 18.1224 6.05345C18.3377 5.32474 18.6058 4.41782 18.0891 3.70817C17.5687 2.99288 16.618 2.96886 15.8543 2.94934C15.533 2.96217 15.2116 2.92763 14.9004 2.84679C14.7292 2.57838 14.5986 2.28624 14.5126 1.97974C14.2578 1.25398 13.9403 0.350677 13.0901 0.0743876C12.2651 -0.193733 11.5248 0.315673 10.872 0.763634C10.6096 0.973098 10.3151 1.13867 9.99982 1.25395C9.68436 1.1388 9.38967 0.973197 9.12729 0.763634C8.47445 0.31528 7.7339 -0.192519 6.90913 0.0743876C6.05917 0.350677 5.74181 1.25352 5.48668 1.97944C5.40086 2.28441 5.27164 2.57546 5.10298 2.84364C4.79077 2.92694 4.46777 2.96247 4.14493 2.94905C3.38121 2.96853 2.43054 2.99258 1.91014 3.70784C1.39349 4.41789 1.66154 5.3248 1.87681 6.05358C1.98999 6.35939 2.05646 6.68049 2.07394 7.00612C1.87435 7.24485 1.64163 7.45382 1.38286 7.62661C0.766635 8.09655 0 8.68161 0 9.58694C0 10.4923 0.766635 11.0773 1.38299 11.5473C1.63969 11.7197 1.87156 11.9264 2.07204 12.1618C2.05714 12.4896 1.99127 12.813 1.87675 13.1204C1.66151 13.8492 1.39342 14.7561 1.91008 15.4657C2.43047 16.181 3.38115 16.205 4.1449 16.2246C4.46619 16.2118 4.78759 16.2463 5.09882 16.3271C5.26993 16.5955 5.4006 16.8877 5.48658 17.1942C5.74171 17.9201 6.05907 18.8233 6.90923 19.0996C7.05984 19.149 7.21737 19.1741 7.37589 19.1741C8.01573 19.1741 8.6 18.7725 9.12735 18.4104C9.3897 18.2009 9.68423 18.0353 9.99956 17.9199C10.315 18.0351 10.6097 18.2007 10.8722 18.4103C11.525 18.8586 12.2653 19.366 13.0903 19.0995C13.9402 18.8232 14.2576 17.9204 14.5127 17.1944C14.5985 16.8895 14.7278 16.5984 14.8964 16.3302C15.2086 16.247 15.5316 16.2114 15.8545 16.2248C16.6182 16.2054 17.5689 16.1813 18.0893 15.466C18.6059 14.756 18.3379 13.8491 18.1226 13.1203C18.0094 12.8145 17.943 12.4934 17.9255 12.1678C18.1251 11.929 18.3578 11.7201 18.6166 11.5473C19.2325 11.0773 19.9991 10.4923 19.9991 9.58694C19.9992 8.68161 19.2325 8.09655 18.6162 7.62658ZM13.7136 8.09288L9.54713 12.2594C9.22183 12.5848 8.69435 12.5849 8.36895 12.2596C8.36889 12.2595 8.36882 12.2594 8.36875 12.2594L6.2855 10.1761C5.95596 9.85484 5.94927 9.32725 6.27054 8.99772C6.5918 8.66819 7.11938 8.6615 7.44892 8.98276C7.45397 8.98768 7.45896 8.99267 7.46388 8.99772L8.95794 10.4918L12.5353 6.91446C12.8565 6.58493 13.3841 6.57827 13.7136 6.89954C14.0432 7.2208 14.0498 7.74838 13.7286 8.07792C13.7237 8.083 13.7187 8.08796 13.7136 8.09288Z" fill="#26323A"/>
</svg>
