<svg width="42" height="42" viewBox="0 0 42 42" fill="none" xmlns="http://www.w3.org/2000/svg">
<rect width="42" height="42" rx="6" fill="#C8BAAD" fill-opacity="0.1"/>
<g clip-path="url(#clip0_11048_3129)">
<path d="M28.2142 12.3733C27.2062 11.3671 25.5738 11.3671 24.5658 12.3733L23.6525 13.2916L13.9306 23.0084L13.9099 23.0292C13.9049 23.0342 13.9049 23.0395 13.8996 23.0395C13.8893 23.055 13.8738 23.0703 13.8636 23.0858C13.8636 23.091 13.8583 23.091 13.8583 23.0962C13.848 23.1117 13.843 23.122 13.8325 23.1375C13.8275 23.1427 13.8275 23.1477 13.8223 23.153C13.8171 23.1685 13.812 23.1788 13.8066 23.1943C13.8066 23.1993 13.8016 23.1993 13.8016 23.2046L11.6446 29.6909C11.5814 29.8756 11.6295 30.0801 11.7684 30.2172C11.8661 30.3135 11.9978 30.3674 12.1349 30.367C12.1909 30.366 12.2464 30.3573 12.3 30.3411L18.7813 28.179C18.7863 28.179 18.7863 28.179 18.7916 28.174C18.8079 28.1691 18.8236 28.1622 18.8379 28.1531C18.842 28.1527 18.8455 28.1509 18.8484 28.1481C18.8638 28.1378 18.8844 28.1273 18.8999 28.117C18.9153 28.1068 18.9309 28.0913 18.9464 28.081C18.9516 28.0757 18.9566 28.0757 18.9566 28.0707C18.9619 28.0655 18.9722 28.0605 18.9774 28.05L29.6126 17.4148C30.6188 16.4068 30.6188 14.7744 29.6126 13.7665L28.2142 12.3733ZM18.6162 26.9663L15.0247 23.3749L24.0137 14.3859L27.6052 17.9772L18.6162 26.9663ZM14.5188 24.3295L17.6564 27.467L12.945 29.0356L14.5188 24.3295ZM28.8851 16.6923L28.338 17.2445L24.7464 13.6529L25.2988 13.1008C25.9029 12.4972 26.8822 12.4972 27.4866 13.1008L28.8901 14.5044C29.4897 15.1113 29.4875 16.0883 28.8851 16.6923Z" fill="#C8BAAD"/>
</g>
<defs>
<clipPath id="clip0_11048_3129">
<rect width="20" height="20" fill="white" transform="translate(11 11)"/>
</clipPath>
</defs>
</svg>
