<svg width="42" height="42" viewBox="0 0 42 42" fill="none" xmlns="http://www.w3.org/2000/svg">
<rect width="42" height="42" rx="6" fill="#C8BAAD" fill-opacity="0.1"/>
<path fill-rule="evenodd" clip-rule="evenodd" d="M17.875 22.6635C17.875 22.3251 18.1548 22.0508 18.5 22.0508H23.5C23.8452 22.0508 24.125 22.3251 24.125 22.6635C24.125 23.0019 23.8452 23.2763 23.5 23.2763H18.5C18.1548 23.2763 17.875 23.0019 17.875 22.6635Z" fill="#C8BAAD"/>
<path fill-rule="evenodd" clip-rule="evenodd" d="M17.875 29.1994C17.875 28.861 18.1548 28.5867 18.5 28.5867H23.5C23.8452 28.5867 24.125 28.861 24.125 29.1994C24.125 29.5378 23.8452 29.8122 23.5 29.8122H18.5C18.1548 29.8122 17.875 29.5378 17.875 29.1994Z" fill="#C8BAAD"/>
<path fill-rule="evenodd" clip-rule="evenodd" d="M16.2109 25.9313C16.2109 25.593 16.4908 25.3186 16.8359 25.3186H25.1693C25.5145 25.3186 25.7943 25.593 25.7943 25.9313C25.7943 26.2698 25.5145 26.5441 25.1693 26.5441H16.8359C16.4908 26.5441 16.2109 26.2698 16.2109 25.9313Z" fill="#C8BAAD"/>
<path fill-rule="evenodd" clip-rule="evenodd" d="M17.1635 15.0131C16.6406 15.8676 16.6276 16.922 16.6276 17.7615C16.6276 18.0999 16.3478 18.3743 16.0026 18.3743C15.4082 18.3743 14.5026 18.5542 13.7636 19.0758C13.0565 19.5749 12.4609 20.4122 12.4609 21.8465C12.4609 23.5431 13.2966 24.4231 14.2052 24.8815C14.5122 25.0364 14.6329 25.4058 14.475 25.7067C14.3171 26.0076 13.9402 26.126 13.6333 25.9712C12.3552 25.3264 11.2109 24.0517 11.2109 21.8465C11.2109 20.0128 12.0043 18.8076 13.0332 18.0813C13.7948 17.5437 14.6618 17.2833 15.3828 17.1903C15.4047 16.391 15.517 15.3216 16.0917 14.3826C16.8604 13.1264 18.3504 12.2468 21.0026 12.2468C23.6548 12.2468 25.1448 13.1264 25.9135 14.3826C26.4882 15.3216 26.6005 16.391 26.6224 17.1903C27.3434 17.2833 28.2104 17.5437 28.972 18.0813C30.001 18.8076 30.7943 20.0128 30.7943 21.8465C30.7943 24.0517 29.65 25.3264 28.3719 25.9712C28.065 26.126 27.6881 26.0076 27.5302 25.7067C27.3723 25.4058 27.493 25.0364 27.8 24.8815C28.7086 24.4231 29.5443 23.5431 29.5443 21.8465C29.5443 20.4122 28.9487 19.5749 28.2416 19.0758C27.5026 18.5542 26.597 18.3743 26.0026 18.3743C25.6574 18.3743 25.3776 18.0999 25.3776 17.7615C25.3776 16.922 25.3647 15.8676 24.8417 15.0131C24.3604 14.2267 23.3504 13.4723 21.0026 13.4723C18.6548 13.4723 17.6448 14.2267 17.1635 15.0131Z" fill="#C8BAAD"/>
</svg>
