<svg width="42" height="42" viewBox="0 0 42 42" fill="none" xmlns="http://www.w3.org/2000/svg">
<rect width="42" height="42" rx="6" fill="#C8BAAD" fill-opacity="0.1"/>
<g clip-path="url(#clip0_11048_3126)">
<path d="M30.4141 13.3438H27.3864C27.1141 12.0081 25.9305 11 24.5156 11C23.1008 11 21.9171 12.0081 21.6449 13.3438H11.5859C11.2623 13.3438 11 13.6061 11 13.9297C11 14.2533 11.2623 14.5156 11.5859 14.5156H21.6449C21.9171 15.8513 23.1008 16.8594 24.5156 16.8594C25.9305 16.8594 27.1141 15.8513 27.3864 14.5156H30.4141C30.7377 14.5156 31 14.2533 31 13.9297C31 13.6061 30.7377 13.3438 30.4141 13.3438ZM24.5156 15.6875C23.5465 15.6875 22.7581 14.8992 22.7578 13.9302C22.7578 13.93 22.7579 13.9299 22.7579 13.9297C22.7579 13.9295 22.7578 13.9293 22.7578 13.9292C22.7581 12.9602 23.5465 12.1719 24.5156 12.1719C25.4849 12.1719 26.2734 12.9604 26.2734 13.9297C26.2734 14.8989 25.4849 15.6875 24.5156 15.6875Z" fill="#C8BAAD"/>
<path d="M30.4141 20.4141H20.3551C20.0829 19.0784 18.8992 18.0703 17.4844 18.0703C16.0695 18.0703 14.8859 19.0784 14.6136 20.4141H11.5859C11.2623 20.4141 11 20.6764 11 21C11 21.3236 11.2623 21.5859 11.5859 21.5859H14.6136C14.8858 22.9216 16.0695 23.9297 17.4844 23.9297C18.8992 23.9297 20.0829 22.9216 20.3551 21.5859H30.4141C30.7377 21.5859 31 21.3236 31 21C31 20.6764 30.7377 20.4141 30.4141 20.4141ZM17.4844 22.7578C16.5153 22.7578 15.7268 21.9695 15.7266 21.0005C15.7266 21.0004 15.7266 21.0002 15.7266 21C15.7266 20.9998 15.7266 20.9996 15.7266 20.9995C15.7268 20.0305 16.5153 19.2422 17.4844 19.2422C18.4536 19.2422 19.2422 20.0307 19.2422 21C19.2422 21.9693 18.4536 22.7578 17.4844 22.7578Z" fill="#C8BAAD"/>
<path d="M30.4141 27.4844H27.3864C27.1142 26.1487 25.9305 25.1406 24.5156 25.1406C23.1008 25.1406 21.9171 26.1487 21.6449 27.4844H11.5859C11.2623 27.4844 11 27.7467 11 28.0703C11 28.3939 11.2623 28.6562 11.5859 28.6562H21.6449C21.9171 29.9919 23.1008 31 24.5156 31C25.9305 31 27.1141 29.9919 27.3864 28.6562H30.4141C30.7377 28.6562 31 28.3939 31 28.0703C31 27.7467 30.7377 27.4844 30.4141 27.4844ZM24.5156 29.8281C23.5465 29.8281 22.7581 29.0398 22.7578 28.0708C22.7578 28.0707 22.7579 28.0705 22.7579 28.0703C22.7579 28.0701 22.7578 28.07 22.7578 28.0698C22.7581 27.1008 23.5465 26.3125 24.5156 26.3125C25.4849 26.3125 26.2734 27.1011 26.2734 28.0703C26.2734 29.0396 25.4849 29.8281 24.5156 29.8281Z" fill="#C8BAAD"/>
</g>
<defs>
<clipPath id="clip0_11048_3126">
<rect width="20" height="20" fill="white" transform="translate(11 11)"/>
</clipPath>
</defs>
</svg>
