<svg width="42" height="42" viewBox="0 0 42 42" fill="none" xmlns="http://www.w3.org/2000/svg">
<rect width="42" height="42" rx="6" fill="#C8BAAD" fill-opacity="0.1"/>
<path d="M24.548 17.4554C23.6485 16.5559 22.3787 15.9739 21.003 15.9739C19.6273 15.9739 18.3575 16.5294 17.458 17.4554C16.5586 18.3548 15.9766 19.6247 15.9766 21.0003C15.9766 22.376 16.5586 23.6458 17.458 24.5453C18.3575 25.4448 19.6273 26.0268 21.003 26.0268C22.3787 26.0268 23.6485 25.4712 24.548 24.5453C25.4474 23.6458 26.0295 22.376 26.0295 21.0003C26.0295 19.6247 25.4739 18.3548 24.548 17.4554ZM23.5956 23.5929C22.9342 24.2543 22.0083 24.6511 21.003 24.6511C19.9977 24.6511 19.0718 24.2543 18.4104 23.5929C17.749 22.9315 17.3522 22.0056 17.3522 21.0003C17.3522 19.995 17.749 19.0691 18.4104 18.4077C19.0718 17.7464 19.9977 17.3495 21.003 17.3495C22.0083 17.3495 22.9342 17.7464 23.5956 18.4077C24.257 19.0691 24.6538 19.995 24.6538 21.0003C24.6538 22.0056 24.257 22.9315 23.5956 23.5929Z" fill="#C8BAAD"/>
<path d="M30.3108 20.313H28.2738C27.9034 20.313 27.5859 20.6304 27.5859 21.0008C27.5859 21.3712 27.9034 21.6886 28.2738 21.6886H30.3108C30.6812 21.6886 30.9986 21.3712 30.9986 21.0008C30.9986 20.6304 30.6812 20.313 30.3108 20.313Z" fill="#C8BAAD"/>
<path d="M21.0003 27.5884C20.63 27.5884 20.3125 27.9058 20.3125 28.2762V30.3132C20.3125 30.6836 20.63 31.0011 21.0003 31.0011C21.3707 31.0011 21.6882 30.6836 21.6882 30.3132V28.2762C21.6882 27.9058 21.3707 27.5884 21.0003 27.5884Z" fill="#C8BAAD"/>
<path d="M28.0628 27.1114L26.6078 25.6564C26.3697 25.3919 25.92 25.3919 25.6554 25.6564C25.3909 25.921 25.3909 26.3442 25.6554 26.6088L27.1105 28.0638C27.375 28.3284 27.7983 28.3284 28.0628 28.0638C28.3274 27.7993 28.3274 27.376 28.0628 27.1114Z" fill="#C8BAAD"/>
<path d="M21.0003 11C20.63 11 20.3125 11.3175 20.3125 11.6878V13.7249C20.3125 14.0952 20.63 14.4127 21.0003 14.4127C21.3707 14.4127 21.6882 14.0952 21.6882 13.7249V11.6878C21.6882 11.3175 21.3707 11 21.0003 11Z" fill="#C8BAAD"/>
<path d="M28.0902 13.9364C27.8256 13.6719 27.4024 13.6719 27.1378 13.9364L25.6828 15.3915C25.4182 15.656 25.4182 16.0793 25.6828 16.3439C25.9209 16.6084 26.3706 16.6084 26.6352 16.3439L28.0902 14.8888C28.3547 14.6243 28.3547 14.201 28.0902 13.9364Z" fill="#C8BAAD"/>
<path d="M13.7249 20.313H11.6878C11.3175 20.313 11 20.6304 11 21.0008C11 21.3712 11.291 21.6886 11.6878 21.6886H13.7249C14.0952 21.6886 14.4127 21.3712 14.4127 21.0008C14.4127 20.6304 14.0952 20.313 13.7249 20.313Z" fill="#C8BAAD"/>
<path d="M16.3168 25.6564C16.0787 25.3919 15.6289 25.3919 15.3644 25.6564L13.9093 27.1114C13.6448 27.376 13.6448 27.7993 13.9093 28.0638C14.1739 28.3284 14.5972 28.3284 14.8617 28.0638L16.3168 26.6088C16.5813 26.3442 16.5813 25.921 16.3168 25.6564Z" fill="#C8BAAD"/>
<path d="M16.3168 15.3915L14.8617 13.9364C14.5972 13.6719 14.1739 13.6719 13.9093 13.9364C13.6448 14.201 13.6448 14.6243 13.9093 14.8888L15.3644 16.3439C15.6289 16.6084 16.0522 16.6084 16.3168 16.3439C16.5813 16.0793 16.5813 15.656 16.3168 15.3915Z" fill="#C8BAAD"/>
</svg>
