<svg width="42" height="42" viewBox="0 0 42 42" fill="none" xmlns="http://www.w3.org/2000/svg">
<rect width="42" height="42" rx="6" fill="#C8BAAD" fill-opacity="0.1"/>
<path d="M26.7716 21.1877C26.4821 21.1331 26.2005 21.076 25.9346 21.0179C25.7764 20.9831 25.6204 21.0835 25.5859 21.2416C25.5513 21.3996 25.6515 21.5558 25.8096 21.5904C26.0809 21.6496 26.3682 21.7079 26.6632 21.7635C26.843 21.7973 26.9248 22.008 26.8144 22.1538L25.9225 23.3336C25.7322 23.5852 25.4303 23.7354 25.1148 23.7354H16.8908C16.5754 23.7354 16.2734 23.5852 16.0832 23.3336L15.1912 22.1538C15.0808 22.0079 15.1628 21.7973 15.3425 21.7635C18.3619 21.1948 18.7056 20.7411 18.8185 20.592C19.0678 20.2629 19.3189 19.8476 19.5198 19.4901C19.8473 19.6964 20.2137 19.8096 20.6427 19.8096H21.3629C21.7773 19.8096 22.1462 19.7035 22.4855 19.4897C22.6864 19.8473 22.9375 20.2627 23.1871 20.5921C23.2966 20.7367 23.5471 20.9614 24.4533 21.2425C24.6081 21.2905 24.772 21.204 24.8199 21.0495C24.8678 20.8949 24.7814 20.7308 24.6269 20.6829C23.8357 20.4375 23.6777 20.2694 23.6541 20.2382C23.398 19.9 23.132 19.4474 22.9508 19.1208C24.0508 18.1003 24.1494 17.5305 24.4072 16.1512C24.4163 16.1025 24.4491 16.0619 24.4948 16.0427C24.7677 15.928 24.944 15.6627 24.944 15.3668V14.6286C24.944 14.3982 24.8386 14.1708 24.6127 14.0152C24.5589 13.9786 24.5278 13.9551 24.5157 13.9002C24.4362 13.5412 24.2264 12.8451 23.7146 12.2174C23.056 11.4096 22.1437 11 21.0028 11C19.8619 11 18.9496 11.4096 18.291 12.2173C17.7791 12.8452 17.5694 13.5412 17.4899 13.9002C17.4784 13.9522 17.4536 13.9734 17.391 14.0164C17.1667 14.1718 17.0615 14.3986 17.0615 14.6286V15.3667C17.0615 15.6626 17.2378 15.9279 17.5107 16.0425C17.5565 16.0618 17.5893 16.1024 17.5984 16.1512C17.8583 17.5416 17.9575 18.1004 19.0546 19.121C18.8734 19.4475 18.6075 19.9002 18.3514 20.2381C18.2037 20.4331 17.2987 20.7987 15.2339 21.1877C14.6264 21.3021 14.3513 22.0146 14.7237 22.5072L15.6157 23.6869C15.8988 24.0612 16.3384 24.2932 16.805 24.3187C17.0368 24.4648 17.9241 25.0796 18.4016 26.1898H18.0861C17.6966 26.1898 17.3797 26.5066 17.3797 26.8961V27.4463H15.8298C15.3673 27.4463 14.9911 27.8225 14.9911 28.285V30.1613C14.9911 30.6237 15.3673 31 15.8298 31H20.3191C20.481 31 20.6121 30.8689 20.6121 30.707C20.6121 30.5452 20.481 30.4141 20.3191 30.4141H15.8299C15.6905 30.4141 15.5771 30.3007 15.5771 30.1613V28.285C15.5771 28.1456 15.6905 28.0322 15.8299 28.0322H26.1757C26.3151 28.0322 26.4286 28.1456 26.4286 28.285V30.1613C26.4286 30.3007 26.3152 30.4141 26.1757 30.4141H21.6864C21.5246 30.4141 21.3934 30.5452 21.3934 30.707C21.3934 30.8689 21.5246 31 21.6864 31H26.1757C26.6382 31 27.0144 30.6237 27.0144 30.1613V28.285C27.0144 27.8225 26.6382 27.4463 26.1757 27.4463H24.6259V26.8961C24.6259 26.5066 24.309 26.1898 23.9194 26.1898H23.6041C24.0808 25.0846 24.9699 24.4655 25.201 24.3187C25.6674 24.2931 26.1068 24.0611 26.3898 23.6869L27.2818 22.5072C27.6546 22.0141 27.3785 21.302 26.7716 21.1877ZM18.1743 16.0435C18.1289 15.8004 17.9657 15.5982 17.7377 15.5023C17.6829 15.4793 17.6475 15.4261 17.6475 15.3667V14.6286C17.6475 14.5694 17.6771 14.5311 17.723 14.4992C17.8057 14.4423 17.9995 14.3091 18.062 14.0268C18.1888 13.4542 18.7755 11.5859 21.0028 11.5859C23.23 11.5859 23.8168 13.4542 23.9436 14.0268C24.0065 14.311 24.2 14.443 24.2827 14.4993L24.2953 14.508L24.2954 14.5081C24.3347 14.5355 24.3581 14.5806 24.3581 14.6286V15.3667C24.3581 15.4261 24.3227 15.4793 24.2679 15.5024C24.0399 15.5982 23.8766 15.8005 23.8312 16.0436C23.6592 16.9632 23.585 17.9755 22.2655 18.9316C21.9937 19.1275 21.7103 19.2237 21.3629 19.2237H20.6427C20.3165 19.2237 20.0524 19.138 19.8134 18.9827C18.4306 18.0769 18.3327 16.8895 18.1743 16.0435ZM23.9194 26.7757C23.9859 26.7757 24.0399 26.8297 24.0399 26.8961V27.4463H17.9657V26.8961C17.9657 26.8297 18.0197 26.7757 18.0861 26.7757H23.9194ZM22.9732 26.1898H19.0324C18.7219 25.3359 18.1977 24.7186 17.7636 24.3213H24.2421C23.808 24.7186 23.2837 25.3359 22.9732 26.1898Z" fill="#C8BAAD"/>
</svg>
