<svg width="51" height="52" viewBox="0 0 51 52" fill="none" xmlns="http://www.w3.org/2000/svg">
<ellipse cx="25.5" cy="26" rx="25.5" ry="26" fill="#FAF9F7"/>
<path fill-rule="evenodd" clip-rule="evenodd" d="M22.4585 33.9024C23.6407 33.9743 24.8215 34.0025 26 33.9999C27.1784 34.0025 28.3593 33.9743 29.5416 33.9024C30.5372 33.8419 31.4817 33.5121 32.2692 32.8699C33.0277 32.2513 33.5036 31.4228 33.7404 30.4947C33.9593 29.6373 33.9711 28.7755 33.9817 27.9969L33.982 27.9816C33.9909 27.3232 33.9984 26.6627 34 26.0015V26V25.9985C33.9984 25.3373 33.9909 24.6768 33.982 24.0184L33.9817 24.0031C33.9711 23.2245 33.9592 22.3627 33.7404 21.5052C33.5036 20.5771 33.0277 19.7487 32.2692 19.1301C31.4817 18.4879 30.5372 18.1582 29.5416 18.0976C28.3593 18.0258 27.1784 17.9974 26 18.0002C24.8215 17.9974 23.6407 18.0258 22.4585 18.0976C21.4628 18.1582 20.5183 18.4879 19.7307 19.1301C18.9722 19.7487 18.4963 20.5771 18.2595 21.5052C18.0407 22.3628 18.0289 23.2248 18.0183 24.0033L18.0181 24.0184C18.0091 24.6768 18.0015 25.3373 18 25.9985V26V26.0015C18.0015 26.6627 18.0091 27.3232 18.0181 27.9816L18.0183 27.9967C18.0289 28.7752 18.0407 29.6372 18.2595 30.4948C18.4963 31.4228 18.9722 32.2513 19.7307 32.8699C20.5183 33.5121 21.4628 33.8419 22.4585 33.9024ZM25.9985 32.7499C24.8413 32.7525 23.6867 32.7248 22.5343 32.6547C21.7694 32.6081 21.0827 32.3595 20.5207 31.9012C19.9986 31.4753 19.6513 30.8932 19.4707 30.1857C19.293 29.4891 19.279 28.7689 19.268 27.9645C19.259 27.3081 19.2516 26.6536 19.2501 26C19.2516 25.3464 19.259 24.6919 19.268 24.0355C19.279 23.231 19.293 22.5109 19.4707 21.8143C19.6513 21.1068 19.9986 20.5246 20.5207 20.0989C21.0827 19.6406 21.7694 19.3919 22.5343 19.3453C23.6867 19.2753 24.8413 19.2474 25.9985 19.2502H26H26.0015C27.1585 19.2474 28.3133 19.2753 29.4656 19.3453C30.2307 19.3919 30.9172 19.6406 31.4792 20.0988C32.0013 20.5246 32.3487 21.1068 32.5292 21.8143C32.7069 22.5109 32.7209 23.231 32.732 24.0355C32.7409 24.6919 32.7484 25.3463 32.75 26C32.7484 26.6537 32.7409 27.3081 32.732 27.9645C32.7209 28.7689 32.7069 29.4891 32.5292 30.1857C32.3487 30.8932 32.0013 31.4753 31.4792 31.9012C30.9172 32.3595 30.2307 32.6081 29.4656 32.6547C28.3133 32.7248 27.1585 32.7525 26.0015 32.7499H26H25.9985Z" fill="#24343D"/>
<path fill-rule="evenodd" clip-rule="evenodd" d="M22.1133 26.0005C22.1133 28.1465 23.853 29.8862 25.999 29.8862C28.145 29.8862 29.8848 28.1465 29.8848 26.0005C29.8848 23.8545 28.145 22.1147 25.999 22.1147C23.853 22.1147 22.1133 23.8545 22.1133 26.0005ZM25.999 28.6427C24.5397 28.6427 23.3568 27.4598 23.3568 26.0005C23.3568 24.5411 24.5397 23.3582 25.999 23.3582C27.4584 23.3582 28.6413 24.5411 28.6413 26.0005C28.6413 27.4598 27.4584 28.6427 25.999 28.6427Z" fill="#24343D"/>
<path d="M31.2582 21.657C31.2582 22.1619 30.8489 22.5712 30.344 22.5712C29.839 22.5712 29.4297 22.1619 29.4297 21.657C29.4297 21.152 29.839 20.7427 30.344 20.7427C30.8489 20.7427 31.2582 21.152 31.2582 21.657Z" fill="#24343D"/>
</svg>
