<svg width="50" height="51" viewBox="0 0 50 51" fill="none" xmlns="http://www.w3.org/2000/svg">
<ellipse cx="24.994" cy="25.484" rx="24.994" ry="25.484" fill="white"/>
<path fill-rule="evenodd" clip-rule="evenodd" d="M22.0126 33.2296C23.1713 33.3 24.3287 33.3277 25.4838 33.3251C26.6388 33.3277 27.7963 33.3 28.9551 33.2296C29.931 33.1702 30.8568 32.847 31.6286 32.2175C32.3721 31.6112 32.8385 30.7992 33.0706 29.8894C33.2852 29.0491 33.2967 28.2044 33.3072 27.4413L33.3074 27.4262C33.3162 26.7809 33.3235 26.1335 33.3251 25.4854V25.484V25.4825C33.3235 24.8345 33.3162 24.187 33.3074 23.5417L33.3072 23.5267C33.2967 22.7636 33.2851 21.9189 33.0706 21.0784C32.8385 20.1687 32.3721 19.3567 31.6286 18.7504C30.8568 18.121 29.931 17.7978 28.9551 17.7384C27.7963 17.668 26.6388 17.6402 25.4838 17.6429C24.3287 17.6402 23.1713 17.668 22.0126 17.7384C21.0367 17.7978 20.1109 18.121 19.339 18.7504C18.5955 19.3567 18.1291 20.1687 17.8969 21.0784C17.6824 21.919 17.6709 22.7639 17.6605 23.5269L17.6603 23.5417C17.6515 24.187 17.6441 24.8345 17.6426 25.4825V25.484V25.4854C17.6441 26.1335 17.6515 26.7809 17.6603 27.4262L17.6605 27.441C17.6709 28.2041 17.6824 29.049 17.8969 29.8896C18.1291 30.7992 18.5955 31.6112 19.339 32.2175C20.1109 32.847 21.0367 33.1702 22.0126 33.2296ZM25.4824 32.0999C24.3481 32.1025 23.2164 32.0753 22.0869 32.0066C21.3372 31.961 20.6641 31.7172 20.1133 31.2681C19.6015 30.8506 19.2611 30.2801 19.0841 29.5866C18.9099 28.9038 18.8962 28.198 18.8854 27.4095C18.8766 26.7661 18.8693 26.1246 18.8678 25.484C18.8693 24.8433 18.8766 24.2018 18.8854 23.5584C18.8962 22.77 18.9099 22.0642 19.0841 21.3813C19.2611 20.6878 19.6015 20.1173 20.1133 19.6999C20.6641 19.2508 21.3372 19.007 22.0869 18.9614C23.2164 18.8927 24.3481 18.8654 25.4824 18.8681H25.4838H25.4853C26.6194 18.8654 27.7513 18.8927 28.8807 18.9614C29.6305 19.007 30.3034 19.2507 30.8543 19.6999C31.3661 20.1173 31.7065 20.6878 31.8835 21.3813C32.0577 22.0641 32.0714 22.77 32.0822 23.5584C32.091 24.2018 32.0983 24.8432 32.0999 25.484C32.0983 26.1247 32.091 26.7661 32.0822 27.4095C32.0714 28.198 32.0577 28.9038 31.8835 29.5866C31.7065 30.2801 31.3661 30.8506 30.8543 31.2681C30.3034 31.7172 29.6305 31.961 28.8807 32.0066C27.7513 32.0753 26.6194 32.1025 25.4853 32.0999H25.4838H25.4824Z" fill="#24343D"/>
<path fill-rule="evenodd" clip-rule="evenodd" d="M21.6758 25.4845C21.6758 27.5879 23.381 29.2931 25.4844 29.2931C27.5878 29.2931 29.293 27.5879 29.293 25.4845C29.293 23.3811 27.5878 21.6759 25.4844 21.6759C23.381 21.6759 21.6758 23.3811 21.6758 25.4845ZM25.4844 28.0743C24.054 28.0743 22.8946 26.9149 22.8946 25.4845C22.8946 24.0541 24.054 22.8947 25.4844 22.8947C26.9148 22.8947 28.0743 24.0541 28.0743 25.4845C28.0743 26.9149 26.9148 28.0743 25.4844 28.0743Z" fill="#24343D"/>
<path d="M30.638 21.2272C30.638 21.7221 30.2367 22.1233 29.7418 22.1233C29.2469 22.1233 28.8457 21.7221 28.8457 21.2272C28.8457 20.7323 29.2469 20.3311 29.7418 20.3311C30.2367 20.3311 30.638 20.7323 30.638 21.2272Z" fill="#24343D"/>
</svg>
