<svg width="210" height="38" viewBox="0 0 210 38" fill="none" xmlns="http://www.w3.org/2000/svg">
<g clip-path="url(#clip0_9014_3150)">
<path d="M158.06 23.3181C161.762 22.9584 165.394 25.5497 165.614 29.7475C165.802 33.3934 163.085 36.3479 159.6 37.2559C157.005 37.9299 154.211 37.455 152.587 35.157C152.088 34.4516 151.83 33.2677 151.917 32.3387C151.99 31.553 152.518 30.8301 152.828 30.0129C150.188 30.7253 145.669 31.2422 144.398 28.368C143.888 27.2155 143.937 25.9059 144.702 24.9875C146.724 22.5603 149.263 23.3111 149.109 22.3368C149.081 22.1657 148.739 22.033 148.467 21.9491C145.592 21.0516 143.473 18.6035 142.84 15.5792C142.247 12.7574 143.581 9.90769 145.784 7.99391C148.166 5.92646 151.428 5.57723 154.498 5.59819C157.061 3.75425 159.268 2.43765 162.614 3.10817C163.194 3.22342 164.238 3.82061 164.475 4.31302C164.786 5.30483 164.66 6.3176 164.573 7.44561C164.067 6.93574 163.731 6.49222 163.274 5.91599C161.524 3.71584 157.843 3.38407 155.797 5.68549C158.493 6.41189 160.892 7.3618 162.46 9.54798C165.603 13.9413 163.752 19.3229 159.457 21.5336C158.489 22.033 157.592 22.3333 156.572 22.5638C152.801 23.4089 152.982 22.3752 147.195 23.8909C146.79 23.9956 146.109 24.7639 146.469 25.0782C147.213 25.7313 150.077 24.9909 151.18 24.722C153.478 24.1563 155.71 23.5521 158.067 23.3216L158.06 23.3181ZM148.795 14.6258C149.2 13.9483 149.458 13.4838 149.643 12.9215C150.405 10.5922 151.718 8.57363 153.37 6.78208C154.414 5.65057 151.592 6.43634 150.897 7.23957C149.221 9.17081 148.536 12.3104 148.795 14.6258ZM154.711 6.43634C151.903 8.80063 149.333 13.8889 149.322 17.3987C149.319 19.0156 150.094 20.3462 151.187 21.3694C152.189 22.3123 153.604 22.487 154.903 21.8688C158.978 19.9271 159.15 8.60506 154.711 6.43634ZM161.856 35.1605C162.97 33.7461 162.949 31.2701 161.437 30.0443C159.436 28.4239 156.415 28.4169 154.33 29.7929C152.731 30.8475 152.158 32.9394 153.028 34.5145C154.693 37.5213 159.991 37.5318 161.856 35.164V35.1605Z" fill="#415D6D"/>
<path d="M183.614 6.20934C185.217 6.25823 186.68 7.56436 186.68 9.20923L186.69 27.4844C180.275 28.3331 181.923 24.1388 180.614 25.1586C177.561 27.5333 175.34 28.4728 171.408 27.9804C168.866 27.6626 166.683 25.6231 166.669 22.8432L166.578 6.26173C167.626 6.16743 168.502 6.12203 169.487 6.28617C170.591 6.46777 171.984 7.43863 171.998 8.6784L172.127 21.8199C172.141 23.4054 172.669 25.0748 173.87 26.0561C174.907 26.9047 176.489 26.8454 177.666 26.2936C178.958 25.6859 180.006 24.8338 181.218 23.9502V6.20585C182.053 6.1849 182.713 6.17791 183.617 6.20585L183.614 6.20934Z" fill="#415D6D"/>
<path d="M88.3116 7.20464C86.5689 7.69007 85.2768 8.7168 84.0649 9.99848L84.051 27.439C83.0417 27.6346 82.0045 27.6521 81.0197 27.4181C79.6577 27.0968 78.582 26.0107 78.582 24.5474V6.25822C81.4702 6.0417 83.1465 5.98233 84.2326 8.853C87.4664 6.42585 89.4151 5.37467 93.5221 5.71692C96.3893 5.95439 98.6558 8.16851 98.6628 11.1719L98.6907 27.4879C97.629 27.5857 96.728 27.6276 95.7607 27.474C94.5279 27.2784 93.2602 26.2377 93.2532 24.8931L93.2008 11.3046C93.2008 10.4525 92.7224 9.38034 92.3207 8.6714C91.5489 7.29893 89.8622 6.7681 88.3046 7.20464H88.3116Z" fill="#415D6D"/>
<path d="M135.602 27.0165C133.22 28.1794 130.653 28.3016 128.079 27.921C125.369 27.5229 122.893 26.1958 121.329 23.8804C117.875 18.7642 118.636 10.2604 124.601 6.94621C126.822 5.70993 129.347 5.5004 131.851 5.71692C136.339 6.10107 139.859 9.06953 140.962 13.4733C142.206 18.4533 140.746 24.5055 135.605 27.02L135.602 27.0165ZM131.533 27.2993C137.079 25.3821 136.796 4.87527 129.745 6.27569C126.305 6.95668 125.617 12.2755 125.38 15.188C125.125 18.3241 125.586 23.5102 127.513 26.0142C128.435 27.212 129.92 27.8616 131.533 27.3028V27.2993Z" fill="#415D6D"/>
<path d="M203.399 24.062C205.396 23.9328 206.828 22.9549 208.057 21.3834C208.476 22.1028 207.9 22.5079 207.617 23.0283C205.819 26.332 202.354 28.347 198.59 28.0502C194.93 27.7603 191.661 25.7907 190.009 22.5254C187.998 18.5511 188.148 13.3266 190.788 9.74005C193.921 5.48293 200.378 4.39683 204.953 7.04748C207.376 8.45139 208.903 11.0112 209.143 13.9518L194.65 13.9727C193.1 13.9727 194.633 17.94 194.954 18.7642C196.299 22.1761 199.599 24.3169 203.399 24.069V24.062ZM203.255 13.407C204.663 11.0566 204.059 8.04628 201.652 6.78905C199.438 5.6331 196.735 6.25473 195.384 8.3082C194.371 9.8518 193.868 11.6049 194.036 13.4105H203.255V13.407Z" fill="#415D6D"/>
<path d="M76.6418 27.3832C75.3322 27.701 73.8445 27.7289 72.6466 27.0863C71.9342 26.7022 71.1554 25.7488 71.1554 24.8757L71.1484 0.143191C72.0355 -0.0838083 72.9086 -0.00348534 73.8305 0.115253C75.4265 0.321299 76.6418 1.48424 76.6418 3.17451V27.3832Z" fill="#415D6D"/>
<path d="M119.427 6.52013C119.549 6.2163 120.056 6.1255 120.171 6.20932C120.318 6.31409 120.115 6.6249 120.01 6.88682L114.447 20.4684L111.531 27.4635C110.766 27.5822 109.694 27.7708 109.059 27.2609C108.245 26.6079 107.822 25.5008 107.382 24.5474L105.528 20.5278L101.089 11.0636L98.8086 6.17789L103.513 6.19186C104.12 6.19186 105.126 6.83444 105.392 7.37575L107.34 11.35L112.219 21.8374L112.446 22.4171C112.505 22.5708 113.005 22.2495 113.068 22.0958L115.208 16.8469C116.584 13.4733 118.257 9.36636 119.417 6.52712L119.427 6.52013Z" fill="#415D6D"/>
<path d="M74.8883 35.7402V33.2083L73.6276 35.3177H73.4006L72.1468 33.2223V35.7367H71.6719V32.2619H72.077L73.5263 34.703L74.9546 32.2619H75.3597V35.7367H74.8883V35.7402Z" fill="#C8BAAD"/>
<path d="M77.1562 32.2689H77.6522V35.7437H77.1562V32.2689Z" fill="#C8BAAD"/>
<path d="M81.7556 35.7402L81.0047 34.6751C80.9349 34.6786 80.8615 34.6856 80.7847 34.6856H79.9256V35.7437H79.4297V32.2689H80.7847C81.6892 32.2689 82.234 32.7264 82.234 33.4807C82.234 34.015 81.9546 34.4027 81.4692 34.5773L82.2934 35.7437H81.7521L81.7556 35.7402ZM81.7416 33.4772C81.7416 32.9813 81.4098 32.6984 80.7742 32.6984H79.9291V34.263H80.7742C81.4098 34.263 81.7416 33.9766 81.7416 33.4772Z" fill="#C8BAAD"/>
<path d="M86.111 35.7402L85.3602 34.6751C85.2903 34.6786 85.217 34.6856 85.1402 34.6856H84.2811V35.7437H83.7852V32.2689H85.1402C86.0447 32.2689 86.5895 32.7264 86.5895 33.4807C86.5895 34.015 86.3101 34.4027 85.8247 34.5773L86.6488 35.7437H86.1075L86.111 35.7402ZM86.0971 33.4772C86.0971 32.9813 85.7653 32.6984 85.1297 32.6984H84.2846V34.263H85.1297C85.7653 34.263 86.0971 33.9766 86.0971 33.4772Z" fill="#C8BAAD"/>
<path d="M87.8594 34.0046C87.8594 32.9883 88.6451 32.227 89.7103 32.227C90.7754 32.227 91.5507 32.9813 91.5507 34.0046C91.5507 35.0278 90.765 35.7822 89.7103 35.7822C88.6556 35.7822 87.8594 35.0243 87.8594 34.0046ZM91.0548 34.0046C91.0548 33.2363 90.4786 32.6705 89.7103 32.6705C88.942 32.6705 88.3553 33.2363 88.3553 34.0046C88.3553 34.7729 88.9315 35.3386 89.7103 35.3386C90.4891 35.3386 91.0548 34.7729 91.0548 34.0046Z" fill="#C8BAAD"/>
<path d="M95.3771 35.7402L94.6262 34.6751C94.5564 34.6786 94.483 34.6856 94.4097 34.6856H93.5506V35.7437H93.0547V32.2689H94.4097C95.3142 32.2689 95.859 32.7264 95.859 33.4807C95.859 34.015 95.5796 34.4027 95.0942 34.5773L95.9184 35.7437H95.3771V35.7402ZM95.3631 33.4772C95.3631 32.9813 95.0313 32.6984 94.3957 32.6984H93.5506V34.263H94.3957C95.0313 34.263 95.3631 33.9766 95.3631 33.4772Z" fill="#C8BAAD"/>
<path d="M97.0938 35.3421L97.2788 34.9545C97.5373 35.1885 97.9773 35.3561 98.4243 35.3561C99.025 35.3561 99.2834 35.1221 99.2834 34.8218C99.2834 33.9731 97.1811 34.511 97.1811 33.2188C97.1811 32.6845 97.5966 32.227 98.5116 32.227C98.9202 32.227 99.3393 32.3353 99.6292 32.5343L99.465 32.9324C99.1612 32.7404 98.8189 32.6496 98.5116 32.6496C97.9214 32.6496 97.6665 32.8975 97.6665 33.2013C97.6665 34.05 99.7689 33.5191 99.7689 34.7938C99.7689 35.3247 99.3428 35.7822 98.4243 35.7822C97.8935 35.7822 97.3731 35.604 97.0938 35.3456V35.3421Z" fill="#C8BAAD"/>
<path d="M105.855 35.7961L105.394 35.3351C105.09 35.6285 104.696 35.7822 104.235 35.7822C103.529 35.7822 103.02 35.4085 103.02 34.8777C103.02 34.4516 103.264 34.1547 103.865 33.8125C103.55 33.4982 103.449 33.2782 103.449 33.0198C103.449 32.5518 103.816 32.241 104.389 32.241C104.916 32.241 105.251 32.5134 105.251 32.9639C105.251 33.3166 105.042 33.568 104.511 33.8719L105.37 34.724C105.464 34.5459 105.537 34.3363 105.583 34.0954L105.964 34.2211C105.904 34.5284 105.799 34.7973 105.66 35.0139L106.128 35.4818L105.859 35.7996L105.855 35.7961ZM105.111 35.0558L104.123 34.0744C103.638 34.3468 103.484 34.5494 103.484 34.8288C103.484 35.1605 103.795 35.384 104.263 35.384C104.595 35.384 104.888 35.2758 105.111 35.0558ZM103.886 33.0058C103.886 33.1839 103.955 33.3131 104.238 33.5995C104.696 33.341 104.843 33.1839 104.843 32.9639C104.843 32.7439 104.678 32.5832 104.382 32.5832C104.067 32.5832 103.886 32.7578 103.886 33.0058Z" fill="#C8BAAD"/>
<path d="M112.532 34.8043C112.532 35.4015 112.082 35.7437 111.202 35.7437H109.543V32.2689H111.101C111.9 32.2689 112.347 32.6076 112.347 33.1664C112.347 33.5436 112.155 33.8055 111.879 33.9417C112.27 34.05 112.529 34.3433 112.529 34.8043H112.532ZM110.039 32.6705V33.7811H111.055C111.562 33.7811 111.848 33.5925 111.848 33.2258C111.848 32.8591 111.562 32.6705 111.055 32.6705H110.039ZM112.029 34.7624C112.029 34.3608 111.733 34.1827 111.181 34.1827H110.039V35.3386H111.181C111.733 35.3386 112.029 35.164 112.029 34.7624Z" fill="#C8BAAD"/>
<path d="M116.257 34.8707H114.41L114.029 35.7403H113.52L115.091 32.2654H115.583L117.162 35.7403H116.642L116.261 34.8707H116.257ZM116.083 34.476L115.332 32.7753L114.581 34.476H116.079H116.083Z" fill="#C8BAAD"/>
<path d="M118.937 32.6985H117.746V32.2654H120.62V32.6985H119.429V35.7403H118.937V32.6985Z" fill="#C8BAAD"/>
<path d="M124.896 32.2689V35.7437H124.4V34.1966H122.406V35.7437H121.91V32.2689H122.406V33.7636H124.4V32.2689H124.896Z" fill="#C8BAAD"/>
<path d="M131.555 32.2689L130.393 35.7437H129.872L128.926 32.9708L127.979 35.7437H127.449L126.289 32.2689H126.799L127.738 35.0907L128.716 32.2689H129.174L130.131 35.1081L131.087 32.2689H131.559H131.555Z" fill="#C8BAAD"/>
<path d="M135.007 34.8707H133.16L132.779 35.7403H132.27L133.841 32.2654H134.333L135.912 35.7403H135.392L135.011 34.8707H135.007ZM134.833 34.476L134.082 32.7753L133.331 34.476H134.829H134.833Z" fill="#C8BAAD"/>
<path d="M139.498 35.7402L138.747 34.6751C138.677 34.6786 138.604 34.6856 138.527 34.6856H137.668V35.7437H137.172V32.2689H138.527C139.431 32.2689 139.976 32.7264 139.976 33.4807C139.976 34.015 139.697 34.4027 139.211 34.5773L140.036 35.7437H139.494L139.498 35.7402ZM139.484 33.4772C139.484 32.9813 139.152 32.6984 138.516 32.6984H137.671V34.263H138.516C139.152 34.263 139.484 33.9766 139.484 33.4772Z" fill="#C8BAAD"/>
<path d="M144.045 35.3107V35.7437H141.523V32.2689H143.975V32.7019H142.019V33.7671H143.762V34.1897H142.019V35.3107H144.045Z" fill="#C8BAAD"/>
<path d="M5.75182 36.8227C4.37935 37.1545 2.82178 37.1859 1.56804 36.5119C0.824183 36.1138 0.00698461 35.1115 0.00698461 34.1965L0 0.150064C0.928953 -0.0874128 1.84394 -0.000105207 2.80781 0.122125C4.47713 0.335156 5.75182 1.55746 5.75182 3.32806V36.8262V36.8227Z" fill="#415D6D"/>
<path d="M8.85714 0.674042H8.11328V37.0499H8.85714V0.674042Z" fill="#C8BAAD"/>
<path d="M58.7587 16.117C61.1474 14.6188 62.7399 11.9681 62.7399 8.94731C62.7399 4.2781 58.9437 0.481964 54.2745 0.481964H40.5533V0.488949C40.0364 0.471487 39.5265 0.502918 39.0097 0.632133V12.953L29.0531 36.4178L15.2131 3.81013C14.4623 2.03953 12.6672 0.820717 10.9071 0.604195C9.89086 0.481964 8.94096 0.394657 8.11328 0.632133L22.5714 34.6786C22.9591 35.5936 24.2023 36.5924 25.1173 36.994C26.6574 37.668 28.201 37.6366 29.4338 37.3048V37.2943L39.0167 14.7061V34.6821C39.0202 35.5971 39.8374 36.5959 40.5847 36.9975C41.8384 37.6715 43.396 37.6401 44.7685 37.3083H55.4549C61.4372 37.3083 66.3055 32.44 66.3055 26.4577C66.3055 21.6279 63.131 17.5244 58.7587 16.124V16.117ZM61.996 8.94731C61.996 11.9612 60.2569 14.5734 57.7354 15.8446C56.9985 15.6874 56.2372 15.6001 55.4514 15.6001H44.765V3.81013C44.765 2.6891 44.2516 1.79158 43.4554 1.22582H54.2745C58.5317 1.22582 61.996 4.69019 61.996 8.94731ZM55.4514 36.5609H44.765V16.344H55.4514C61.0252 16.344 65.5582 20.877 65.5582 26.4507C65.5582 32.0244 61.0252 36.5574 55.4514 36.5574V36.5609Z" fill="#C8BAAD"/>
</g>
<defs>
<clipPath id="clip0_9014_3150">
<rect width="209.14" height="37.5353" fill="white"/>
</clipPath>
</defs>
</svg>
