<svg width="24" height="24" viewBox="0 0 24 24" fill="none" xmlns="http://www.w3.org/2000/svg">
<circle cx="11.076" cy="12" r="7.38462" fill="#26323A"/>
<path d="M23.4675 10.4884L21.8354 8.59285C21.5233 8.23294 21.2713 7.56111 21.2713 7.08123V5.04174C21.2713 3.77006 20.2273 2.72632 18.9552 2.72632H16.9151C16.447 2.72632 15.763 2.47438 15.403 2.16246L13.5069 0.530867C12.6788 -0.176956 11.3227 -0.176956 10.4827 0.530867L8.59852 2.17446C8.23849 2.47438 7.55445 2.72632 7.08643 2.72632H5.0103C3.73822 2.72632 2.69416 3.77006 2.69416 5.04174V7.09322C2.69416 7.56111 2.44215 8.23294 2.14213 8.59285L0.522031 10.5004C-0.17401 11.3282 -0.17401 12.6718 0.522031 13.4996L2.14213 15.4072C2.44215 15.7671 2.69416 16.4389 2.69416 16.9068V18.9583C2.69416 20.2299 3.73822 21.2737 5.0103 21.2737H7.08643C7.55445 21.2737 8.23849 21.5256 8.59852 21.8375L10.4947 23.4691C11.3227 24.177 12.6788 24.177 13.5189 23.4691L15.415 21.8375C15.775 21.5256 16.447 21.2737 16.9271 21.2737H18.9672C20.2393 21.2737 21.2833 20.2299 21.2833 18.9583V16.9188C21.2833 16.4509 21.5353 15.7671 21.8474 15.4072L23.4795 13.5116C24.1755 12.6838 24.1755 11.3162 23.4675 10.4884ZM16.9871 9.73257L11.1907 15.5271C11.0227 15.6951 10.7947 15.7911 10.5547 15.7911C10.3147 15.7911 10.0867 15.6951 9.91864 15.5271L7.01442 12.6239C6.6664 12.2759 6.6664 11.7001 7.01442 11.3522C7.36244 11.0043 7.93848 11.0043 8.2865 11.3522L10.5547 13.6196L15.715 8.46088C16.063 8.11297 16.639 8.11297 16.9871 8.46088C17.3351 8.80879 17.3351 9.38465 16.9871 9.73257Z" fill="#E6E0D9"/>
</svg>
