<svg width="33" height="33" viewBox="0 0 33 33" fill="none" xmlns="http://www.w3.org/2000/svg">
<rect width="32.1428" height="32.1428" rx="8" fill="white"/>
<path d="M15.7644 9.57312C12.3509 9.57312 9.57031 12.3537 9.57031 15.7672C9.57031 19.1807 12.3509 21.9667 15.7644 21.9667C17.2224 21.9667 18.5633 21.4558 19.6231 20.6074L22.2032 23.1862C22.3334 23.311 22.5073 23.3798 22.6877 23.378C22.868 23.3761 23.0405 23.3038 23.1681 23.1763C23.2957 23.0489 23.3684 22.8765 23.3705 22.6962C23.3726 22.5158 23.3039 22.3418 23.1793 22.2115L20.5992 19.6314C21.4483 18.57 21.9599 17.2269 21.9599 15.7672C21.9599 12.3537 19.1779 9.57312 15.7644 9.57312ZM15.7644 10.9499C18.4339 10.9499 20.5817 13.0978 20.5817 15.7672C20.5817 18.4367 18.4339 20.59 15.7644 20.59C13.095 20.59 10.9471 18.4367 10.9471 15.7672C10.9471 13.0978 13.095 10.9499 15.7644 10.9499Z" fill="black"/>
</svg>
