<svg width="33" height="33" viewBox="0 0 33 33" fill="none" xmlns="http://www.w3.org/2000/svg">
<rect width="32.1428" height="32.1428" rx="8" fill="white"/>
<g clip-path="url(#clip0_9014_3160)">
<path fill-rule="evenodd" clip-rule="evenodd" d="M15.0679 21.3694C15.6542 21.3694 16.13 21.8452 16.13 22.4315C16.13 23.0177 15.6542 23.4936 15.0679 23.4936C14.4817 23.4936 14.0058 23.0177 14.0058 22.4315C14.0058 21.8452 14.4817 21.3694 15.0679 21.3694ZM19.6876 21.3694C20.2738 21.3694 20.7497 21.8452 20.7497 22.4315C20.7497 23.0177 20.2738 23.4936 19.6876 23.4936C19.1014 23.4936 18.6255 23.0177 18.6255 22.4315C18.6255 21.8452 19.1014 21.3694 19.6876 21.3694ZM8.01565 10.7595H9.5161C9.80816 10.7595 10.0648 10.9544 10.143 11.2364C10.143 11.2364 10.1435 11.2364 10.1435 11.2369C10.649 13.0564 11.7412 16.9879 12.2487 18.8142C12.4869 19.6724 13.2686 20.2661 14.1585 20.2661H20.5712C21.4812 20.2661 22.2744 19.6466 22.4947 18.7635C22.9415 16.9779 23.8288 13.4282 23.8288 13.4282C23.8779 13.2312 23.8335 13.0221 23.7084 12.862C23.5832 12.7015 23.3915 12.608 23.1881 12.608H14.0058C13.6414 12.608 13.3457 12.9038 13.3457 13.2682C13.3457 13.6326 13.6414 13.9284 14.0058 13.9284H22.3426L21.2134 18.4445C21.14 18.7392 20.8749 18.9457 20.5712 18.9457H14.1585C13.8611 18.9457 13.6002 18.7471 13.5205 18.4609C13.0129 16.6346 11.9207 12.7025 11.4153 10.8831C11.1792 10.0301 10.4018 9.43915 9.5161 9.43915H8.01565C7.65123 9.43915 7.35547 9.73491 7.35547 10.0993C7.35547 10.4637 7.65123 10.7595 8.01565 10.7595Z" fill="#2B292A"/>
</g>
<defs>
<clipPath id="clip0_9014_3160">
<rect width="17.4287" height="17.4287" fill="white" transform="translate(7.14062 7.37357)"/>
</clipPath>
</defs>
</svg>
