<svg width="77" height="40" viewBox="0 0 77 40" fill="none" xmlns="http://www.w3.org/2000/svg">
<rect width="77" height="40" rx="20" fill="white"/>
<path d="M51 20.6C51.3314 20.6 51.6 20.3314 51.6 20C51.6 19.6686 51.3314 19.4 51 19.4V20V20.6ZM25.5757 19.5757C25.3414 19.8101 25.3414 20.1899 25.5757 20.4243L29.3941 24.2426C29.6284 24.477 30.0083 24.477 30.2426 24.2426C30.477 24.0083 30.477 23.6284 30.2426 23.3941L26.8485 20L30.2426 16.6059C30.477 16.3716 30.477 15.9917 30.2426 15.7574C30.0083 15.523 29.6284 15.523 29.3941 15.7574L25.5757 19.5757ZM51 20V19.4L26 19.4V20V20.6L51 20.6V20Z" fill="#26323A"/>
</svg>
