<svg width="42" height="42" viewBox="0 0 42 42" fill="none" xmlns="http://www.w3.org/2000/svg">
<rect width="42" height="42" rx="6" fill="#C8BAAD" fill-opacity="0.1"/>
<path fill-rule="evenodd" clip-rule="evenodd" d="M17.3685 19.4258C17.6697 19.1245 18.1582 19.1245 18.4594 19.4258L20.9996 21.9659L28.6824 14.2831C28.9836 13.9818 29.472 13.9818 29.7733 14.2831C30.0745 14.5843 30.0745 15.0727 29.7733 15.374L21.545 23.6023C21.2438 23.9035 20.7554 23.9035 20.4541 23.6023L17.3685 20.5167C17.0673 20.2154 17.0673 19.727 17.3685 19.4258Z" fill="#C8BAAD"/>
<path fill-rule="evenodd" clip-rule="evenodd" d="M20.9997 13.5428C16.8814 13.5428 13.5428 16.8814 13.5428 20.9997C13.5428 25.118 16.8814 28.4565 20.9997 28.4565C25.118 28.4565 28.4566 25.118 28.4566 20.9997C28.4566 20.5736 28.8019 20.2283 29.228 20.2283C29.654 20.2283 29.9994 20.5736 29.9994 20.9997C29.9994 25.9701 25.9701 29.9993 20.9997 29.9993C16.0293 29.9993 12 25.9701 12 20.9997C12 16.0293 16.0293 12 20.9997 12C22.0639 12 23.0866 12.1851 24.0363 12.5254C24.4374 12.6691 24.646 13.1108 24.5023 13.5118C24.3585 13.9129 23.9169 14.1215 23.5159 13.9777C22.7308 13.6964 21.884 13.5428 20.9997 13.5428Z" fill="#C8BAAD"/>
</svg>
