<svg width="26" height="26" viewBox="0 0 26 26" fill="none" xmlns="http://www.w3.org/2000/svg">
<path d="M22.8976 12.4786L19.9445 11.6347C18.6146 11.2597 17.4032 10.5498 16.4261 9.57274C15.4491 8.59571 14.7391 7.38429 14.3642 6.05441L13.5203 3.10124C13.4779 2.99792 13.4057 2.90955 13.3129 2.84735C13.2201 2.78516 13.1109 2.75195 12.9992 2.75195C12.8875 2.75195 12.7783 2.78516 12.6856 2.84735C12.5928 2.90955 12.5206 2.99792 12.4781 3.10124L11.6342 6.05441C11.2593 7.38429 10.5493 8.59571 9.5723 9.57274C8.59527 10.5498 7.38385 11.2597 6.05396 11.6347L3.1008 12.4786C2.9874 12.5108 2.88761 12.5791 2.81654 12.6731C2.74548 12.7671 2.70703 12.8818 2.70703 12.9997C2.70703 13.1175 2.74548 13.2322 2.81654 13.3262C2.88761 13.4203 2.9874 13.4886 3.1008 13.5207L6.05396 14.3647C7.38385 14.7396 8.59527 15.4495 9.5723 16.4266C10.5493 17.4036 11.2593 18.615 11.6342 19.9449L12.4781 22.8981C12.5103 23.0115 12.5786 23.1113 12.6726 23.1823C12.7667 23.2534 12.8813 23.2918 12.9992 23.2918C13.1171 23.2918 13.2317 23.2534 13.3258 23.1823C13.4198 23.1113 13.4881 23.0115 13.5203 22.8981L14.3642 19.9449C14.7391 18.615 15.4491 17.4036 16.4261 16.4266C17.4032 15.4495 18.6146 14.7396 19.9445 14.3647L22.8976 13.5207C23.011 13.4886 23.1108 13.4203 23.1819 13.3262C23.2529 13.2322 23.2914 13.1175 23.2914 12.9997C23.2914 12.8818 23.2529 12.7671 23.1819 12.6731C23.1108 12.5791 23.011 12.5108 22.8976 12.4786Z" fill="white"/>
</svg>
