<svg width="16" height="16" viewBox="0 0 16 16" fill="none" xmlns="http://www.w3.org/2000/svg">
<path fill-rule="evenodd" clip-rule="evenodd" d="M4.77115 6.60022C5.03888 6.33244 5.47307 6.33244 5.74085 6.60022L7.99872 8.85809L14.8279 2.02896C15.0956 1.76118 15.5298 1.76118 15.7976 2.02896C16.0653 2.29674 16.0653 2.73088 15.7976 2.99866L8.4836 10.3127C8.21582 10.5805 7.78168 10.5805 7.5139 10.3127L4.77115 7.56992C4.50337 7.30214 4.50337 6.868 4.77115 6.60022Z" fill="#C8BAAD"/>
<path fill-rule="evenodd" clip-rule="evenodd" d="M7.99968 1.37137C4.33897 1.37137 1.37137 4.33898 1.37137 7.99969C1.37137 11.6604 4.33897 14.628 7.99968 14.628C11.6604 14.628 14.628 11.6604 14.628 7.99969C14.628 7.62098 14.935 7.31401 15.3137 7.31401C15.6924 7.31401 15.9994 7.62098 15.9994 7.99969C15.9994 12.4178 12.4178 15.9993 7.99968 15.9993C3.58157 15.9993 0 12.4178 0 7.99969C0 3.58159 3.58157 0 7.99968 0C8.94568 0 9.85474 0.164499 10.6989 0.467026C11.0554 0.594786 11.2408 0.987345 11.1131 1.34386C10.9853 1.70033 10.5927 1.88574 10.2363 1.75799C9.53842 1.5079 8.78577 1.37137 7.99968 1.37137Z" fill="#C8BAAD"/>
</svg>
