<svg width="50" height="51" viewBox="0 0 50 51" fill="none" xmlns="http://www.w3.org/2000/svg">
<ellipse cx="24.994" cy="25.484" rx="24.994" ry="25.484" fill="white"/>
<path d="M32.7182 21.5694C31.8218 21.5694 30.9947 21.2724 30.3305 20.7715C29.5689 20.1972 29.0216 19.3548 28.8283 18.3839C28.7805 18.144 28.7547 17.8964 28.7522 17.6427H26.1917V24.6396L26.1885 28.4721C26.1885 29.4967 25.5214 30.3655 24.5964 30.6711C24.3279 30.7597 24.0381 30.8017 23.7362 30.7851C23.3509 30.764 22.9898 30.6477 22.676 30.46C22.0082 30.0605 21.5554 29.336 21.5431 28.507C21.5238 27.2115 22.5711 26.1553 23.8657 26.1553C24.1212 26.1553 24.3666 26.197 24.5964 26.2728V24.3604V23.6729C24.3541 23.6371 24.1075 23.6183 23.858 23.6183C22.441 23.6183 21.1158 24.2073 20.1685 25.2684C19.4524 26.0703 19.023 27.0934 18.9567 28.1662C18.8699 29.5755 19.3856 30.9152 20.3856 31.9036C20.5326 32.0488 20.6869 32.1834 20.8482 32.3077C21.7057 32.9675 22.7539 33.3252 23.858 33.3252C24.1075 33.3252 24.3541 33.3068 24.5964 33.271C25.6277 33.1182 26.5794 32.646 27.3303 31.9036C28.2531 30.9916 28.7629 29.7807 28.7684 28.492L28.7554 22.7689C29.1955 23.1084 29.6768 23.3894 30.1934 23.6075C30.9969 23.9465 31.8487 24.1184 32.7255 24.118V22.2587V21.5688L32.7182 21.5694Z" fill="#24343D"/>
</svg>
