<svg width="51" height="52" viewBox="0 0 51 52" fill="none" xmlns="http://www.w3.org/2000/svg">
<ellipse cx="25.5" cy="26" rx="25.5" ry="26" fill="#FAF9F7"/>
<path d="M33.3818 22.0062C32.4672 22.0062 31.6234 21.7032 30.9458 21.1921C30.1687 20.6062 29.6103 19.7468 29.4131 18.7562C29.3643 18.5114 29.338 18.2588 29.3355 18H26.7231V25.1385L26.7199 29.0487C26.7199 30.094 26.0392 30.9804 25.0955 31.2921C24.8216 31.3825 24.5259 31.4255 24.2179 31.4085C23.8248 31.3869 23.4564 31.2683 23.1363 31.0768C22.4549 30.6692 21.9929 29.93 21.9804 29.0843C21.9607 27.7625 23.0292 26.6849 24.35 26.6849C24.6107 26.6849 24.8611 26.7275 25.0955 26.8048V24.8537V24.1523C24.8483 24.1157 24.5967 24.0965 24.3422 24.0965C22.8965 24.0965 21.5444 24.6975 20.5779 25.7801C19.8474 26.5983 19.4093 27.642 19.3416 28.7365C19.2531 30.1744 19.7792 31.5412 20.7995 32.5496C20.9494 32.6977 21.1069 32.8351 21.2715 32.9619C22.1463 33.6351 23.2158 34 24.3422 34C24.5967 34 24.8483 33.9812 25.0955 33.9447C26.1478 33.7888 27.1187 33.3071 27.8848 32.5496C28.8263 31.6192 29.3464 30.3837 29.352 29.0689L29.3387 23.2299C29.7878 23.5764 30.2788 23.8631 30.8059 24.0856C31.6256 24.4315 32.4947 24.6068 33.3892 24.6064V22.7095V22.0056L33.3818 22.0062Z" fill="#24343D"/>
</svg>
