<svg width="51" height="52" viewBox="0 0 51 52" fill="none" xmlns="http://www.w3.org/2000/svg">
<ellipse cx="25.5" cy="26" rx="25.5" ry="26" fill="#FAF9F7"/>
<path d="M33.3203 22.4122C33.2412 21.7529 32.6199 21.1206 31.9697 21.0359C28.0055 20.5434 23.9967 20.5434 20.0336 21.0359C19.383 21.1205 18.7616 21.7529 18.6826 22.4122C18.4027 24.8286 18.4027 27.1716 18.6826 29.5874C18.7616 30.2468 19.383 30.8796 20.0336 30.9637C23.9967 31.4564 28.0056 31.4564 31.9697 30.9637C32.6199 30.8798 33.2412 30.2468 33.3203 29.5874C33.6001 27.1718 33.6001 24.8286 33.3203 22.4122ZM24.7465 28.5098V23.4905L28.5109 26.0004L24.7465 28.5098Z" fill="#24343D"/>
</svg>
