<svg width="50" height="51" viewBox="0 0 50 51" fill="none" xmlns="http://www.w3.org/2000/svg">
<ellipse cx="24.994" cy="25.484" rx="24.994" ry="25.484" fill="white"/>
<path d="M32.6604 21.9674C32.5829 21.3212 31.9739 20.7015 31.3367 20.6185C27.4511 20.1357 23.5218 20.1357 19.6374 20.6185C18.9997 20.7013 18.3906 21.3212 18.3132 21.9674C18.0388 24.3359 18.0388 26.6324 18.3132 29.0003C18.3906 29.6465 18.9997 30.2668 19.6374 30.3492C23.5218 30.8321 27.4512 30.8321 31.3367 30.3492C31.9739 30.267 32.5829 29.6465 32.6604 29.0003C32.9347 26.6326 32.9347 24.3359 32.6604 21.9674ZM24.2568 27.9441V23.0243L27.9465 25.4844L24.2568 27.9441Z" fill="#24343D"/>
</svg>
